<svg width="35" height="36" viewBox="0 0 35 36" fill="none" xmlns="http://www.w3.org/2000/svg">
<mask id="mask0" mask-type="alpha" maskUnits="userSpaceOnUse" x="0" y="0" width="35" height="36">
<path fill-rule="evenodd" clip-rule="evenodd" d="M0.945801 0H34.8281V35.5437H0.945801V0Z" fill="white"/>
</mask>
<g mask="url(#mask0)">
<path fill-rule="evenodd" clip-rule="evenodd" d="M20.3115 23.6205C22.3015 23.6205 23.9212 25.2287 23.9212 27.2055V32.2895C23.9212 32.7143 24.2617 33.0548 24.6981 33.0647H27.8483C30.3308 33.0647 32.3489 31.0714 32.3489 28.6219V14.2028C32.3374 13.3599 31.9357 12.5665 31.2465 12.0393L20.3495 3.34879C18.8868 2.19017 16.8406 2.19017 15.3729 3.3521L4.55028 12.036C3.83461 12.5798 3.43298 13.3731 3.42472 14.2309V28.6219C3.42472 31.0714 5.4428 33.0647 7.92532 33.0647H11.1053C11.5532 33.0647 11.9169 32.7094 11.9169 32.273C11.9169 32.1771 11.9284 32.0813 11.9483 31.9904V27.2055C11.9483 25.2403 13.5581 23.6338 15.5332 23.6205H20.3115ZM27.8481 35.5438H24.6681C22.8467 35.5008 21.4418 34.0711 21.4418 32.2894V27.2053C21.4418 26.5954 20.9344 26.0996 20.3113 26.0996H15.5413C14.9314 26.1029 14.4273 26.6004 14.4273 27.2053V32.2729C14.4273 32.3968 14.4108 32.5158 14.3761 32.6282C14.1976 34.2645 12.7993 35.5438 11.1051 35.5438H7.92514C4.07574 35.5438 0.945312 32.4381 0.945312 28.6218V14.2192C0.961841 12.5763 1.71883 11.0722 3.0262 10.0822L13.8273 1.4132C16.2057 -0.471004 19.5196 -0.471004 21.8931 1.4099L32.7719 10.0872C34.0495 11.0607 34.8065 12.5614 34.828 14.1845V28.6218C34.828 32.4381 31.6975 35.5438 27.8481 35.5438Z" fill="white"/>
</g>
</svg>
