<svg width="36" height="36" viewBox="0 0 36 36" fill="none" xmlns="http://www.w3.org/2000/svg">
<path fill-rule="evenodd" clip-rule="evenodd" d="M33.1375 7.68176C33.1375 2.71121 32.7616 2.71121 28.167 2.71121L28.1218 2.71121C26.1209 2.71121 24.675 2.71121 24.064 3.20103C23.4712 3.68001 23.1964 5.10249 23.1964 7.68176C23.1964 10.261 23.473 11.6835 24.0658 12.1625C24.675 12.6523 26.1209 12.6523 28.1236 12.6523C32.7616 12.6523 33.1375 12.6523 33.1375 7.68176ZM20.4852 7.68176C20.4852 4.63436 20.8052 2.34791 22.365 1.09171C23.7188 -5.30217e-07 25.566 -4.49471e-07 28.1218 -3.37755e-07L28.167 1.3556L28.167 -3.3578e-07C33.3544 -1.0903e-07 35.8488 0.327153 35.8488 7.68176C35.8488 15.0364 33.3544 15.3635 28.167 15.3635C25.5679 15.3635 23.7188 15.3635 22.365 14.2718C20.8052 13.0156 20.4852 10.7292 20.4852 7.68176Z" fill="white"/>
<path fill-rule="evenodd" clip-rule="evenodd" d="M33.1375 27.564C33.1375 22.5934 32.7616 22.5934 28.167 22.5934L28.1218 22.5934C26.1209 22.5934 24.675 22.5934 24.064 23.0832C23.4712 23.5622 23.1964 24.9847 23.1964 27.564C23.1964 30.1432 23.473 31.5657 24.0658 32.0447C24.675 32.5345 26.1209 32.5345 28.1236 32.5345C32.7616 32.5345 33.1375 32.5345 33.1375 27.564ZM20.4852 27.564C20.4852 24.5166 20.8052 22.2301 22.365 20.9739C23.7188 19.8822 25.566 19.8822 28.1218 19.8822L28.167 21.2378L28.167 19.8822C33.3544 19.8822 35.8488 20.2094 35.8488 27.564C35.8488 34.9186 33.3544 35.2457 28.167 35.2457C25.5679 35.2457 23.7188 35.2457 22.365 34.154C20.8052 32.8978 20.4852 30.6114 20.4852 27.564Z" fill="white"/>
<path fill-rule="evenodd" clip-rule="evenodd" d="M13.2553 7.68176C13.2553 2.71121 12.8794 2.71121 8.28479 2.71121L8.2396 2.71121C6.23873 2.71121 4.79276 2.71121 4.18183 3.20103C3.58898 3.68001 3.31424 5.10249 3.31424 7.68176C3.31424 10.261 3.59079 11.6835 4.18364 12.1625C4.79275 12.6523 6.23873 12.6523 8.24141 12.6523C12.8794 12.6523 13.2553 12.6523 13.2553 7.68176ZM0.603039 7.68176C0.60304 4.63436 0.922962 2.34791 2.48281 1.09171C3.83661 -5.30217e-07 5.68384 -4.49471e-07 8.23961 -3.37755e-07L8.2848 1.3556L8.2848 -3.3578e-07C13.4722 -1.0903e-07 15.9666 0.327153 15.9666 7.68176C15.9666 15.0364 13.4722 15.3635 8.2848 15.3635C5.68565 15.3635 3.83661 15.3635 2.48281 14.2718C0.922962 13.0156 0.603039 10.7292 0.603039 7.68176Z" fill="white"/>
<path fill-rule="evenodd" clip-rule="evenodd" d="M13.2553 27.564C13.2553 22.5934 12.8794 22.5934 8.28479 22.5934L8.2396 22.5934C6.23873 22.5934 4.79276 22.5934 4.18183 23.0832C3.58898 23.5622 3.31424 24.9847 3.31424 27.564C3.31424 30.1432 3.59079 31.5657 4.18364 32.0447C4.79275 32.5345 6.23873 32.5345 8.24141 32.5345C12.8794 32.5345 13.2553 32.5345 13.2553 27.564ZM0.603039 27.564C0.60304 24.5166 0.922962 22.2301 2.48281 20.9739C3.83661 19.8822 5.68384 19.8822 8.23961 19.8822L8.2848 21.2378L8.2848 19.8822C13.4722 19.8822 15.9666 20.2094 15.9666 27.564C15.9666 34.9186 13.4722 35.2457 8.2848 35.2457C5.68565 35.2457 3.83661 35.2457 2.48281 34.154C0.922962 32.8978 0.603039 30.6114 0.603039 27.564Z" fill="white"/>
</svg>
