<svg width="29" height="36" viewBox="0 0 29 36" fill="none" xmlns="http://www.w3.org/2000/svg">
<mask id="mask0" mask-type="alpha" maskUnits="userSpaceOnUse" x="0" y="22" width="29" height="14">
<path fill-rule="evenodd" clip-rule="evenodd" d="M0.348755 22.1656H28.4458V35.2458H0.348755V22.1656Z" fill="white"/>
</mask>
<g mask="url(#mask0)">
<path fill-rule="evenodd" clip-rule="evenodd" d="M14.3989 24.8263C6.84071 24.8263 3.00927 26.1248 3.00927 28.6879C3.00927 31.2742 6.84071 32.585 14.3989 32.585C21.9554 32.585 25.7851 31.2866 25.7851 28.7234C25.7851 26.1372 21.9554 24.8263 14.3989 24.8263ZM14.3988 35.2458C10.9239 35.2458 0.348389 35.2458 0.348389 28.688C0.348389 22.8415 8.36781 22.1656 14.3988 22.1656C17.8737 22.1656 28.4456 22.1656 28.4456 28.7234C28.4456 34.5699 20.428 35.2458 14.3988 35.2458Z" fill="white"/>
</g>
<mask id="mask1" mask-type="alpha" maskUnits="userSpaceOnUse" x="4" y="0" width="20" height="19">
<path fill-rule="evenodd" clip-rule="evenodd" d="M4.97815 0H23.8161V18.8354H4.97815V0Z" fill="white"/>
</mask>
<g mask="url(#mask1)">
<path fill-rule="evenodd" clip-rule="evenodd" d="M14.399 2.53233C10.6012 2.53233 7.51126 5.62054 7.51126 9.41828C7.49884 13.2036 10.5658 16.29 14.3475 16.3042L14.399 17.5707V16.3042C18.195 16.3042 21.2832 13.2142 21.2832 9.41828C21.2832 5.62054 18.195 2.53233 14.399 2.53233ZM14.3989 18.8349H14.3422C9.15909 18.819 4.96047 14.592 4.97821 9.41242C4.97821 4.22401 9.20343 -0.0012207 14.3989 -0.0012207C19.5927 -0.0012207 23.8161 4.22401 23.8161 9.41774C23.8161 14.6115 19.5927 18.8349 14.3989 18.8349Z" fill="white"/>
</g>
</svg>
