<svg width="40" height="36" viewBox="0 0 40 36" fill="none" xmlns="http://www.w3.org/2000/svg">
<path fill-rule="evenodd" clip-rule="evenodd" d="M19.6004 20.8517C18.3837 20.8517 17.1706 20.4498 16.1557 19.6459L7.99858 13.0692C7.41112 12.5964 7.32019 11.7361 7.79124 11.1505C8.26594 10.5666 9.1244 10.4739 9.71004 10.9449L17.8599 17.5143C18.8839 18.3255 20.3261 18.3255 21.3574 17.507L29.4254 10.9486C30.011 10.4702 30.8695 10.5612 31.346 11.1468C31.8207 11.7306 31.7316 12.5891 31.1478 13.0656L23.0652 19.635C22.043 20.4461 20.8208 20.8517 19.6004 20.8517Z" fill="white"/>
<mask id="mask0" mask-type="alpha" maskUnits="userSpaceOnUse" x="-1" y="0" width="41" height="36">
<path fill-rule="evenodd" clip-rule="evenodd" d="M-0.00012207 0H39.103V35.4658H-0.00012207V0Z" fill="white"/>
</mask>
<g mask="url(#mask0)">
<path fill-rule="evenodd" clip-rule="evenodd" d="M10.6195 32.7377H28.4797C28.4833 32.734 28.4979 32.7377 28.5088 32.7377C30.584 32.7377 32.4246 31.9956 33.8359 30.5861C35.4746 28.9547 36.3749 26.6103 36.3749 23.9858V11.4946C36.3749 6.41477 33.0539 2.72814 28.4797 2.72814H10.6231C6.04892 2.72814 2.72786 6.41477 2.72786 11.4946V23.9858C2.72786 26.6103 3.62997 28.9547 5.26685 30.5861C6.67821 31.9956 8.52061 32.7377 10.594 32.7377H10.6195ZM10.5881 35.4658C7.78174 35.4658 5.27549 34.4473 3.34033 32.5194C1.1851 30.3696 -0.000732422 27.3396 -0.000732422 23.9858V11.4946C-0.000732422 4.94157 4.56617 0 10.6226 0H28.4792C34.5357 0 39.1026 4.94157 39.1026 11.4946V23.9858C39.1026 27.3396 37.9168 30.3696 35.7615 32.5194C33.8282 34.4455 31.3201 35.4658 28.5083 35.4658H28.4792H10.6226H10.5881Z" fill="white"/>
</g>
</svg>
