<svg width="50" height="46" viewBox="0 0 50 46" fill="none" xmlns="http://www.w3.org/2000/svg">
<path fill-rule="evenodd" clip-rule="evenodd" d="M25.0626 26.6625C23.5068 26.6625 21.9556 26.1485 20.658 25.1206L10.2277 16.7112C9.47651 16.1066 9.36023 15.0066 9.96256 14.2577C10.5695 13.5112 11.6672 13.3926 12.4161 13.995L22.837 22.395C24.1464 23.4322 25.9905 23.4322 27.3092 22.3857L37.6255 13.9996C38.3743 13.388 39.472 13.5043 40.0813 14.2531C40.6883 14.9996 40.5743 16.0973 39.8278 16.7066L29.4929 25.1066C28.1859 26.1438 26.6231 26.6625 25.0626 26.6625" fill="#031E43"/>
<mask id="mask0" mask-type="alpha" maskUnits="userSpaceOnUse" x="0" y="0" width="50" height="46">
<path fill-rule="evenodd" clip-rule="evenodd" d="M0 0H50V45.349H0V0Z" fill="white"/>
</mask>
<g mask="url(#mask0)">
<path fill-rule="evenodd" clip-rule="evenodd" d="M13.5789 41.8606H36.4162C36.4208 41.856 36.4394 41.8606 36.4534 41.8606C39.1069 41.8606 41.4604 40.9118 43.265 39.1095C45.3604 37.0234 46.5116 34.0257 46.5116 30.6699V14.6977C46.5116 8.20235 42.265 3.48838 36.4162 3.48838H13.5835C7.73464 3.48838 3.48811 8.20235 3.48811 14.6977V30.6699C3.48811 34.0257 4.6416 37.0234 6.73463 39.1095C8.53929 40.9118 10.8951 41.8606 13.5463 41.8606H13.5789ZM13.5389 45.349C9.95054 45.349 6.74587 44.0467 4.27144 41.5816C1.51561 38.8327 -0.000671387 34.9583 -0.000671387 30.6699V14.6977C-0.000671387 6.31863 5.83889 0 13.5831 0H36.4158C44.16 0 49.9996 6.31863 49.9996 14.6977V30.6699C49.9996 34.9583 48.4833 38.8327 45.7274 41.5816C43.2553 44.0444 40.0484 45.349 36.453 45.349H36.4158H13.5831H13.5389Z" fill="#031E43"/>
</g>
</svg>
